<svg width="34" height="34" viewBox="0 0 34 34" fill="none" xmlns="http://www.w3.org/2000/svg">
<g clip-path="url(#clip0_71_221)">
<path d="M17.0007 0.0864258C7.6129 0.0864258 0 7.67833 0 17.0449C0 24.5388 4.87138 30.8953 11.6255 33.1372C12.4747 33.2938 12.7874 32.7695 12.7874 32.3214C12.7874 31.9168 12.771 30.5807 12.7642 29.1642C8.03477 30.1898 7.03674 27.1634 7.03674 27.1634C6.26398 25.2034 5.14854 24.6818 5.14854 24.6818C3.60575 23.629 5.26459 23.6507 5.26459 23.6507C6.97121 23.7706 7.87094 25.3982 7.87094 25.3982C9.38778 27.9915 11.848 27.241 12.8174 26.8079C12.9703 25.7115 13.41 24.9637 13.8974 24.5401C10.1209 24.1111 6.15203 22.6565 6.15203 16.1583C6.15203 14.3073 6.81556 12.7941 7.90371 11.6064C7.72758 11.1801 7.14597 9.45577 8.06891 7.1199C8.06891 7.1199 9.49701 6.66362 12.7451 8.85784C14.1008 8.48192 15.5548 8.29396 17.0007 8.28715C18.4452 8.29396 19.9006 8.48192 21.259 8.85784C24.5044 6.66362 25.9297 7.1199 25.9297 7.1199C26.8554 9.45577 26.2724 11.1814 26.0963 11.6078C27.1858 12.7954 27.8452 14.3086 27.8452 16.1596C27.8452 22.6728 23.8681 24.1084 20.0822 24.5279C20.6924 25.0536 21.2358 26.086 21.2358 27.6687C21.2358 29.9378 21.2167 31.7643 21.2167 32.3227C21.2167 32.7736 21.5225 33.3034 22.384 33.1359C29.1354 30.8912 34 24.5361 34 17.0449C34 7.67833 26.3885 0.0864258 17.0007 0.0864258Z" fill="#A6BEFF"/>
</g>
<defs>
<clipPath id="clip0_71_221">
<rect width="34" height="34" fill="white"/>
</clipPath>
</defs>
</svg>
