<svg width="30" height="34" viewBox="0 0 30 34" fill="none" xmlns="http://www.w3.org/2000/svg">
<path d="M16.1037 15.135L16.133 15.0872V15.135M25.435 28.0905H20.9037V19.9846C20.9037 17.9468 20.247 16.5575 18.6084 16.5575C17.355 16.5575 16.6107 17.4949 16.284 18.4002C16.163 18.7238 16.133 19.1758 16.133 19.6281V28.0905H11.6023C11.6023 28.0905 11.6617 14.3605 11.6023 12.9395H16.133V15.0872C16.7343 14.0551 17.8093 12.5826 20.2164 12.5826C23.1987 12.5826 25.435 14.7471 25.435 19.4032M6.82966 10.8696H6.79903C5.27937 10.8696 4.29371 9.70664 4.29371 8.25064C4.29371 6.76541 5.30803 5.63449 6.85832 5.63449C8.409 5.63449 9.36197 6.76541 9.39205 8.25064C9.39205 9.70664 8.409 10.8696 6.82966 10.8696ZM9.09537 28.0905H4.56268V12.9395H9.09537M27.7847 0H2.217C0.993001 0 0 1.07617 0 2.4043V31.1532C0 32.481 0.993001 33.5586 2.217 33.5586H27.7847C29.0094 33.5586 30 32.481 30 31.1532V2.4043C30 1.07617 29.0094 0 27.7847 0Z" fill="#A6BEFF"/>
</svg>
