<svg width="34" height="34" viewBox="0 0 34 34" fill="none" xmlns="http://www.w3.org/2000/svg">
<path d="M18.2508 15.3341L18.284 15.2857V15.3341M28.8264 28.46H23.6908V20.2474C23.6908 18.1828 22.9466 16.7752 21.0895 16.7752C19.669 16.7752 18.8254 17.725 18.4552 18.6422C18.318 18.9701 18.284 19.428 18.284 19.8862V28.46H13.1493C13.1493 28.46 13.2166 14.5494 13.1493 13.1097H18.284V15.2857C18.9656 14.24 20.1839 12.7481 22.9119 12.7481C26.2918 12.7481 28.8264 14.9411 28.8264 19.6584M7.74028 11.0126H7.70556C5.98328 11.0126 4.8662 9.83432 4.8662 8.35917C4.8662 6.8544 6.01576 5.7086 7.77276 5.7086C9.5302 5.7086 10.6102 6.8544 10.6443 8.35917C10.6443 9.83432 9.5302 11.0126 7.74028 11.0126ZM10.3081 28.46H5.17104V13.1097H10.3081M31.4893 0H2.5126C1.1254 0 0 1.09033 0 2.43592V31.563C0 32.9082 1.1254 34 2.5126 34H31.4893C32.8773 34 34 32.9082 34 31.563V2.43592C34 1.09033 32.8773 0 31.4893 0Z" fill="black"/>
</svg>
